<svg width="345" height="373" viewBox="0 0 345 373" fill="none" xmlns="http://www.w3.org/2000/svg">
<g opacity="0.35">
<path opacity="0.5" d="M519.082 463.801L636 -90.5M487.765 463.801L619.297 -90.5M456.448 463.801L603.291 -90.5M423.739 463.801L586.588 -89.801M391.03 463.801L569.886 -89.801M358.321 463.801L551.791 -89.801M322.828 463.801L534.393 -89.102M287.335 464.5L514.907 -89.102M250.45 464.5L495.42 -89.102M212.173 463.801L475.238 -89.102M173.201 463.801L453.664 -89.102M132.836 463.801L431.394 -89.102M90.3842 463.801L408.428 -89.102M47.236 463.801L384.07 -89.102M2 464.5L361.104 -89.102" stroke="url(#paint0_linear_2_107936)" stroke-width="3"/>
</g>
<defs>
<linearGradient id="paint0_linear_2_107936" x1="2" y1="464.5" x2="719.89" y2="316.549" gradientUnits="userSpaceOnUse">
<stop stop-color="#1975FF"/>
<stop offset="1" stop-color="#33A9FF"/>
</linearGradient>
</defs>
</svg>
