<svg width="140" height="28" viewBox="0 0 140 28" fill="none" xmlns="http://www.w3.org/2000/svg">
<path d="M13.345 2.73869C13.6129 2.19811 14.3871 2.19811 14.6551 2.73869L17.6944 8.87035C17.8008 9.08501 18.0065 9.2338 18.2444 9.26822L25.0405 10.2515C25.6396 10.3382 25.8789 11.0713 25.4453 11.4921L20.5276 16.2649C20.3555 16.432 20.2769 16.6727 20.3175 16.9087L21.4785 23.648C21.5808 24.2422 20.9545 24.6953 20.4186 24.4148L14.34 21.2329C14.1272 21.1215 13.8729 21.1215 13.6601 21.2329L7.58152 24.4148C7.04562 24.6953 6.41928 24.2422 6.52163 23.648L7.68254 16.9087C7.72318 16.6727 7.64462 16.432 7.47245 16.2649L2.55477 11.4921C2.12122 11.0713 2.36046 10.3382 2.95961 10.2515L9.75569 9.26822C9.99361 9.2338 10.1993 9.08501 10.3057 8.87035L13.345 2.73869Z" fill="#141C24"/>
<path d="M41.345 2.73869C41.6129 2.19811 42.3871 2.19811 42.6551 2.73869L45.6944 8.87035C45.8008 9.08501 46.0065 9.2338 46.2444 9.26822L53.0405 10.2515C53.6396 10.3382 53.8789 11.0713 53.4453 11.4921L48.5276 16.2649C48.3555 16.432 48.2769 16.6727 48.3175 16.9087L49.4785 23.648C49.5808 24.2422 48.9545 24.6953 48.4186 24.4148L42.34 21.2329C42.1272 21.1215 41.8729 21.1215 41.6601 21.2329L35.5815 24.4148C35.0456 24.6953 34.4193 24.2422 34.5216 23.648L35.6825 16.9087C35.7232 16.6727 35.6446 16.432 35.4725 16.2649L30.5548 11.4921C30.1212 11.0713 30.3605 10.3382 30.9596 10.2515L37.7557 9.26822C37.9936 9.2338 38.1993 9.08501 38.3057 8.87035L41.345 2.73869Z" fill="#141C24"/>
<path d="M69.345 2.73869C69.6129 2.19811 70.3871 2.19811 70.6551 2.73869L73.6944 8.87035C73.8008 9.08501 74.0065 9.2338 74.2444 9.26822L81.0405 10.2515C81.6396 10.3382 81.8789 11.0713 81.4453 11.4921L76.5276 16.2649C76.3555 16.432 76.2769 16.6727 76.3175 16.9087L77.4785 23.648C77.5808 24.2422 76.9545 24.6953 76.4186 24.4148L70.34 21.2329C70.1272 21.1215 69.8729 21.1215 69.6601 21.2329L63.5815 24.4148C63.0456 24.6953 62.4193 24.2422 62.5216 23.648L63.6825 16.9087C63.7232 16.6727 63.6446 16.432 63.4725 16.2649L58.5548 11.4921C58.1212 11.0713 58.3605 10.3382 58.9596 10.2515L65.7557 9.26822C65.9936 9.2338 66.1993 9.08501 66.3057 8.87035L69.345 2.73869Z" fill="#141C24"/>
<path d="M97.345 2.73869C97.6129 2.19811 98.3871 2.19811 98.6551 2.73869L101.694 8.87035C101.801 9.08501 102.006 9.2338 102.244 9.26822L109.04 10.2515C109.64 10.3382 109.879 11.0713 109.445 11.4921L104.528 16.2649C104.355 16.432 104.277 16.6727 104.318 16.9087L105.478 23.648C105.581 24.2422 104.954 24.6953 104.419 24.4148L98.34 21.2329C98.1272 21.1215 97.8729 21.1215 97.6601 21.2329L91.5815 24.4148C91.0456 24.6953 90.4193 24.2422 90.5216 23.648L91.6825 16.9087C91.7232 16.6727 91.6446 16.432 91.4725 16.2649L86.5548 11.4921C86.1212 11.0713 86.3605 10.3382 86.9596 10.2515L93.7557 9.26822C93.9936 9.2338 94.1993 9.08501 94.3057 8.87035L97.345 2.73869Z" fill="#141C24"/>
<path d="M125.345 2.73869C125.613 2.19811 126.387 2.19811 126.655 2.73869L129.694 8.87035C129.801 9.08501 130.006 9.2338 130.244 9.26822L137.04 10.2515C137.64 10.3382 137.879 11.0713 137.445 11.4921L132.528 16.2649C132.355 16.432 132.277 16.6727 132.318 16.9087L133.478 23.648C133.581 24.2422 132.954 24.6953 132.419 24.4148L126.34 21.2329C126.127 21.1215 125.873 21.1215 125.66 21.2329L119.582 24.4148C119.046 24.6953 118.419 24.2422 118.522 23.648L119.683 16.9087C119.723 16.6727 119.645 16.432 119.472 16.2649L114.555 11.4921C114.121 11.0713 114.36 10.3382 114.96 10.2515L121.756 9.26822C121.994 9.2338 122.199 9.08501 122.306 8.87035L125.345 2.73869Z" fill="#141C24"/>
</svg>
